<svg xmlns="http://www.w3.org/2000/svg" xmlns:xlink="http://www.w3.org/1999/xlink" width="198.176" height="136.376" viewBox="0 0 198.176 136.376">
  <defs>
    <clipPath id="clip-path">
      <rect width="198.176" height="136.376" fill="none"/>
    </clipPath>
    <linearGradient id="linear-gradient" x1="0.5" y1="1" x2="0.5" gradientUnits="objectBoundingBox">
      <stop offset="0" stop-color="gray" stop-opacity="0.251"/>
      <stop offset="0.54" stop-color="gray" stop-opacity="0.122"/>
      <stop offset="1" stop-color="gray" stop-opacity="0.102"/>
    </linearGradient>
  </defs>
  <g id="undraw_successful_purchase_uyin" clip-path="url(#clip-path)">
    <g id="undraw_successful_purchase_uyin-2" data-name="undraw_successful_purchase_uyin" transform="translate(0 0.079)">
      <rect id="Прямоугольник_166" data-name="Прямоугольник 166" width="14.762" height="5.536" rx="2.768" transform="translate(60.892 14.144)" fill="#6c63ff" opacity="0.1"/>
      <rect id="Прямоугольник_167" data-name="Прямоугольник 167" width="14.762" height="5.536" rx="2.768" transform="translate(104.808 9.162)" fill="#6c63ff" opacity="0.1"/>
      <rect id="Прямоугольник_168" data-name="Прямоугольник 168" width="14.762" height="5.536" rx="2.768" transform="translate(96.689 65.441)" fill="#5780d9" opacity="0.1"/>
      <rect id="Прямоугольник_169" data-name="Прямоугольник 169" width="14.762" height="5.536" rx="2.768" transform="translate(103.332 71.53)" fill="#5780d9" opacity="0.1"/>
      <rect id="Прямоугольник_170" data-name="Прямоугольник 170" width="14.762" height="5.536" rx="2.768" transform="translate(142.82 68.762)" fill="#5780d9" opacity="0.1"/>
      <rect id="Прямоугольник_171" data-name="Прямоугольник 171" width="14.762" height="5.536" rx="2.768" transform="translate(22.696 73.19)" fill="#5780d9" opacity="0.1"/>
      <rect id="Прямоугольник_172" data-name="Прямоугольник 172" width="14.762" height="5.536" rx="2.768" transform="translate(92.076 77.619)" fill="#5780d9" opacity="0.1"/>
      <path id="Контур_177" data-name="Контур 177" d="M497.21,114.057,490.446,94.42l-2.432.369-2.177.279c.055-.738.151-3.388-1.2-4.777a3.63,3.63,0,0,0-1.14-1.626c-3.237-2.967-3.91,3.1-3.91,3.1s-.738,1.281-1.755,3.07l-.533-.1-.151,1.321c-2.251,3.98-5.242,9.366-5.242,9.872a6.67,6.67,0,0,1-.4,1.888s-2.292,3.775-3.1,5.665a9.059,9.059,0,0,1-2.03,2.967s-.2.149-.517.369a4.612,4.612,0,0,1,.185-1.054,26.542,26.542,0,0,0,1.164-2.784,3.249,3.249,0,0,0,.048-.721,15.538,15.538,0,0,0-.76-3.475c-.275-1.349-.127-2.834-.847-4.006a4.135,4.135,0,0,0-2.556-1.709,19.633,19.633,0,0,0-2.8-.251c-.867-.092-1.7-.476-2.563-.618a3.309,3.309,0,0,0-1.406,0c-1.467.4-1.926,2.253-3.059,3.27-.408.369-.908.624-1.277,1.028a3.089,3.089,0,0,0-.7,2.214,4.723,4.723,0,0,0,.048.806c.14.965.513,1.878.738,2.825a9.781,9.781,0,0,1,.275,2.139c0,.162,0,.325-.015.485a1.7,1.7,0,0,1-.249.923,2.606,2.606,0,0,1-.843.6,6.541,6.541,0,0,1-2.126-3.015s-.05.063-.135.185v-.185a14.2,14.2,0,0,1-2.126-4.921l.642.066,1.476-20.768L445.2,87.3a8.6,8.6,0,0,0-1.15-3.762c.633-1.247.952-2.936-1.823-3.1-3.248-.2-3.048,2.332-2.7,3.716a9.311,9.311,0,0,0-.185,2.3l-3.321-.483-.018.269h-.79l-2.417,21.187,2.059-.1,7.547.786c.6,5.486,1.552,12.265,2.677,13.863a1.36,1.36,0,0,0,.124.153v9.708s-.135,12.547-2.428,14.564a11.993,11.993,0,0,1,4.388-.688q-.039.125-.077.266a23.544,23.544,0,0,0-.7,3.779q-.048.423-.087.882a47.584,47.584,0,0,0,.116,8.438c.945,9.979,2.428,17.127,2.428,17.127l.413,5.8s-.4,9.844.673,13.081a4.884,4.884,0,0,0,1.38.895c.009.092.02.185.03.282s.024.249.037.378c-.483.22-1.386,1.09-1.581,4.512,0,0,.269,2.563-.4,3.775s-.269,4.72,1.753,5.124a10.807,10.807,0,0,0,3.91,0s.945,0,.269-3.371l-.118-.864a11.373,11.373,0,0,1,.388-3.991,1.922,1.922,0,0,0-.269-2.157s-.066.037-.175.087a15.955,15.955,0,0,1-.319-3.6,2.587,2.587,0,0,1,.028-.286,5.679,5.679,0,0,0,1.142-.788V182.264s-.135-19.688,1.349-20.094a88.61,88.61,0,0,1,.4,10.654,33.472,33.472,0,0,0,.4,7.283l.269,14.295s.258.124.675.269l-.028.26c-.164,1.589-.428,3.988-.668,5.456a1.085,1.085,0,0,0-.655.757c-.4,1.349-.135,4.72-.945,5.665a2.967,2.967,0,0,0-.769,2.478c-.175.7-.1,1.792,1.984,1.973,3.1.269,4.451-1.349,4.451-1.349a2.375,2.375,0,0,0,0-1.888,7.893,7.893,0,0,1,.135-3.371s.29-1.83-.185-2.07c-.041-.218-.077-.356-.077-.356a1.624,1.624,0,0,0-.426-1.122,23.326,23.326,0,0,1,.542-5.742c.03-.1.059-.185.09-.286a3.642,3.642,0,0,0,1.14-.4,14.125,14.125,0,0,1,.81-5.259c.945-2.157.4-10.789.4-10.789a10.167,10.167,0,0,1,.166-4.106,40.281,40.281,0,0,0,1.465-6.237l.8-5.571a22.8,22.8,0,0,0-.664-13.741q-.169-.432-.369-.864c-.229-.5-.483-1-.768-1.5-.044-.077-.092-.157-.138-.234.29-.072.454-.114.454-.114s-3.641-8.488-1.349-12.811a5.62,5.62,0,0,0,1.476-2.711c.229-1.877.478-3.751.888-5.6l.072-.325s.011-.063.03-.175c.052-.033.1-.068.151-.105,3.886-2.838,7.237-14.688,7.237-14.688l1.079-2.03.513-1.085-1.052,9.176,8.226,2.03,5.259-.4-.015-1.131,4.008-.312ZM445.064,87.3l-1.461-.214c-.257-1.319-.43-2.185-.43-2.185a8.015,8.015,0,0,0,.81-1.212,8.4,8.4,0,0,1,1.081,3.6Zm-5.458-2.832c.1.347.194.57.194.57l.185,1.522-.5-.072a9.995,9.995,0,0,1,.122-2.028ZM485.7,95.1l-1.978.255a7.417,7.417,0,0,0,.423-3.379,1.7,1.7,0,0,0,.542-1.412c1.175,1.4,1.065,3.884,1.013,4.53Zm-3.284-2.105a4.9,4.9,0,0,0,1.611-.906,7.5,7.5,0,0,1-.454,3.284l-1.845.236-.509-.1Z" transform="translate(-364.556 -80.5)" fill="url(#linear-gradient)"/>
      <path id="Контур_178" data-name="Контур 178" d="M671.007,98.263l-4.814,2.009L660.6,80.77l1.312-1.557,2.4-.373Z" transform="translate(-538.705 -64.357)" fill="#5780d9"/>
      <path id="Контур_179" data-name="Контур 179" d="M671.007,98.263l-4.814,2.009L660.6,80.77l1.312-1.557,2.4-.373Z" transform="translate(-538.705 -64.357)" fill="#a9ff00" opacity="0.55"/>
      <path id="Контур_180" data-name="Контур 180" d="M630.785,80.86l-8.355,1.072,4.283,20.637,8.353-.65Z" transform="translate(-507.578 -66.004)" fill="#a9ff00"/>
      <path id="Контур_181" data-name="Контур 181" d="M630.785,80.86l-8.355,1.072,4.283,20.637,8.353-.65Z" transform="translate(-510.381 -59.466)" fill="#fff" opacity="0.07"/>
      <path id="Контур_182" data-name="Контур 182" d="M707.287,138.763l-.133-.017c0-.05.554-4.921-2.5-5.536l.026-.131C707.864,133.72,707.3,138.713,707.287,138.763Z" transform="translate(-586.252 -123.442)" fill="#535461"/>
      <rect id="Прямоугольник_173" data-name="Прямоугольник 173" width="9.204" height="13.472" transform="translate(90.128 29.54)" fill="#774e55"/>
      <rect id="Прямоугольник_174" data-name="Прямоугольник 174" width="9.204" height="13.472" transform="translate(90.128 29.54)" opacity="0.2"/>
      <path id="Контур_183" data-name="Контур 183" d="M646.522,110.18l-5.2.4.8-20.273,1.733-1.067,2.4.4Z" transform="translate(-522.983 -72.838)" fill="#5780d9"/>
      <path id="Контур_184" data-name="Контур 184" d="M646.522,110.18l-5.2.4.8-20.273,1.733-1.067,2.4.4Z" transform="translate(-522.983 -72.838)" fill="#b200f1" opacity="0.47"/>
      <path id="Контур_185" data-name="Контур 185" d="M607.9,82.162l-8.268-1.6-2.4,20.941,8.136,2Z" transform="translate(-487.028 -65.76)" fill="#b200f1"/>
      <path id="Контур_186" data-name="Контур 186" d="M375.3,35.03h-1.2l-2.4,20.939,5.335-.266Z" transform="translate(-303.113 -28.631)" fill="#5780d9"/>
      <path id="Контур_187" data-name="Контур 187" d="M375.3,35.03h-1.2l-2.4,20.939,5.335-.266Z" transform="translate(-303.113 -28.631)" fill="#a9ff00" opacity="0.44"/>
      <path id="Контур_188" data-name="Контур 188" d="M382.567,33.58,381.1,54.654l12.8,1.334,1.467-20.541Z" transform="translate(-310.779 -27.448)" fill="#a9ff00"/>
      <path id="Контур_189" data-name="Контур 189" d="M524.558,706.808s-1.6-.133-1.867,4.536c0,0,.268,2.534-.4,3.735s-.268,4.668,1.734,5.069a10.689,10.689,0,0,0,3.875,0s.934,0,.268-3.334l-1.334-9.737Z" transform="translate(-437.298 -591.305)" fill="#5c3d53"/>
      <path id="Контур_190" data-name="Контур 190" d="M524.558,706.808s-1.6-.133-1.867,4.536c0,0,.268,2.534-.4,3.735s-.268,4.668,1.734,5.069a10.689,10.689,0,0,0,3.875,0s.934,0,.268-3.334l-1.334-9.737Z" transform="translate(-437.298 -591.305)" opacity="0.05"/>
      <path id="Контур_191" data-name="Контур 191" d="M549.607,256.268a8.927,8.927,0,0,0,.282,3.137l-3.467.934s-5.735.8-3.467-1.476a6.107,6.107,0,0,0,1.338-3.55,19.691,19.691,0,0,0,.1-2.923,26.091,26.091,0,0,0-.236-2.731s8.4-2.934,6.536,1.867a17.071,17.071,0,0,0-.8,2.676A14.1,14.1,0,0,0,549.607,256.268Z" transform="translate(-453.96 -217.786)" fill="#f8bdc5"/>
      <path id="Контур_192" data-name="Контур 192" d="M558.336,251.535a17.071,17.071,0,0,0-.8,2.676,5.746,5.746,0,0,1-5.5-1.812,26.057,26.057,0,0,0-.236-2.731S560.2,246.734,558.336,251.535Z" transform="translate(-461.606 -217.794)" opacity="0.1"/>
      <circle id="Эллипс_23" data-name="Эллипс 23" cx="5.735" cy="5.735" r="5.735" transform="translate(88.995 24.805)" fill="#f8bdc5"/>
      <path id="Контур_193" data-name="Контур 193" d="M479.354,117.057v1.735l-2.934,7.6-.8-.8a1.36,1.36,0,0,1-.122-.151c-1.937-2.753-3.347-21.056-3.347-21.056L470.285,88.91s-2-4.8,2.4-4.536.934,4.4.934,4.4,2.934,14.671,2.534,15.2,0,2.135,0,2.135a15.678,15.678,0,0,1,1.067,5.335C477.083,113.715,479.354,117.057,479.354,117.057Z" transform="translate(-394.762 -83.715)" fill="#f8bdc5"/>
      <path id="Контур_194" data-name="Контур 194" d="M627.013,129.206l-6.936,14.671-1.067,2s-3.321,11.721-7.158,14.527a3.5,3.5,0,0,1-.712.411l-.8-6.4.738-1.86.055-.142a8.96,8.96,0,0,0,2-2.934c.8-1.867,3.069-5.6,3.069-5.6a6.594,6.594,0,0,0,.4-1.867c0-.8,7.6-14.005,7.6-14.005s.666-6,3.875-3.069S627.013,129.206,627.013,129.206Z" transform="translate(-509.344 -116.138)" fill="#f8bdc5"/>
      <path id="Контур_195" data-name="Контур 195" d="M537.127,702.582s-4.536,1.867-4,.133a13.859,13.859,0,0,0,.061-4.428c-.092-.906-.2-1.567-.2-1.567l3.875.4a3.137,3.137,0,0,0-.223,1.061A18.678,18.678,0,0,0,537.127,702.582Z" transform="translate(-446.267 -583.079)" fill="#f8bdc5"/>
      <path id="Контур_196" data-name="Контур 196" d="M574.721,691.481a27.039,27.039,0,0,0-.517,6.657s-4.135.533-3.735-.533a56.667,56.667,0,0,0,.908-6.545c.1-.939.159-1.591.159-1.591l3.735.8A3.732,3.732,0,0,0,574.721,691.481Z" transform="translate(-476.808 -577.167)" fill="#f8bdc5"/>
      <path id="Контур_197" data-name="Контур 197" d="M533,696.69l3.875.4a3.136,3.136,0,0,0-.223,1.061,3.954,3.954,0,0,1-3.451.105C533.1,697.349,533,696.69,533,696.69Z" transform="translate(-446.275 -583.054)" opacity="0.1"/>
      <path id="Контур_198" data-name="Контур 198" d="M579.405,690.269a3.732,3.732,0,0,0-.554,1.212,7.174,7.174,0,0,1-3.342-.421c.1-.939.159-1.591.159-1.591Z" transform="translate(-480.941 -577.167)" opacity="0.1"/>
      <path id="Контур_199" data-name="Контур 199" d="M527.292,446.994l-.786,5.51a39.853,39.853,0,0,1-1.45,6.169,10.036,10.036,0,0,0-.164,4.059s.533,8.536-.4,10.671a13.987,13.987,0,0,0-.8,5.2c-2.135,1.2-5.2-.268-5.2-.268l-.268-14.138a33.1,33.1,0,0,1-.4-7.2,87.811,87.811,0,0,0-.4-10.536c-1.476.4-1.334,19.873-1.334,19.873v12.671a4.3,4.3,0,0,1-6,0c-1.067-3.2-.666-12.939-.666-12.939l-.4-5.735a168.46,168.46,0,0,1-2.4-16.939,47.055,47.055,0,0,1-.114-8.346q.039-.454.085-.873a23.282,23.282,0,0,1,.69-3.737,8.416,8.416,0,0,1,.406-1.183l14.332.666.845.039,2.03.094c.221.334.43.673.624,1.013.28.493.533.989.758,1.476.129.284.251.57.369.854A22.544,22.544,0,0,1,527.292,446.994Z" transform="translate(-424.56 -364.971)" fill="#b200f1"/>
      <path id="Контур_200" data-name="Контур 200" d="M512.13,436.462s-.627,6.274-5.05,4.458q.039-.454.085-.873c1.041.282,3.921.672,4.03-3.587Z" transform="translate(-425.138 -370.842)" opacity="0.1"/>
      <path id="Контур_201" data-name="Контур 201" d="M595.8,436.332c-3.063,1.094-4.218-1.819-4.613-3.482l.845.039c.459,2.615,2.294,2.768,3.41,2.583Q595.633,435.909,595.8,436.332Z" transform="translate(-493.728 -367.898)" opacity="0.1"/>
      <path id="Контур_202" data-name="Контур 202" d="M529.065,716.7c-.681-.107-1.722-.482-1.395-1.79,0,0-1.26-.435-1.127,4.766a16.015,16.015,0,0,1-.4,3.069c-.268.535,0,3.735,2.8,3.467,0,0,2,.666,2.534-.4,0,0-.4-6.135.268-7.2a1.9,1.9,0,0,0-.268-2.135,2.885,2.885,0,0,1-1.624.369A7.122,7.122,0,0,0,529.065,716.7Z" transform="translate(-440.617 -597.905)" fill="#5c3d53"/>
      <path id="Контур_203" data-name="Контур 203" d="M559.195,745.007s-1.334,2.268,1.734,2.534,4.4-1.334,4.4-1.334a2.346,2.346,0,0,0,0-1.867,7.8,7.8,0,0,1,.133-3.334s.4-2.534-.533-2S559.195,745.007,559.195,745.007Z" transform="translate(-467.401 -617.5)" fill="#5c3d53"/>
      <path id="Контур_204" data-name="Контур 204" d="M559.195,745.007s-1.334,2.268,1.734,2.534,4.4-1.334,4.4-1.334a2.346,2.346,0,0,0,0-1.867,7.8,7.8,0,0,1,.133-3.334s.4-2.534-.533-2S559.195,745.007,559.195,745.007Z" transform="translate(-467.401 -617.5)" opacity="0.05"/>
      <path id="Контур_205" data-name="Контур 205" d="M562.611,727.034s-1.6-.666-2,.666-.133,4.668-.934,5.6-1.867,3.467,1.334,3.334,3.875-1.2,3.875-1.2a17.429,17.429,0,0,1,.268-4.268,4.471,4.471,0,0,0,0-2.4S565.278,726.892,562.611,727.034Z" transform="translate(-467.349 -607.663)" fill="#5c3d53"/>
      <circle id="Эллипс_24" data-name="Эллипс 24" cx="0.268" cy="0.268" r="0.268" transform="translate(74.988 7.731)" opacity="0.2"/>
      <circle id="Эллипс_25" data-name="Эллипс 25" cx="0.268" cy="0.268" r="0.268" transform="translate(80.59 8.398)" opacity="0.2"/>
      <path id="Контур_206" data-name="Контур 206" d="M475.712,99.677h-.133c0-.057.094-5.683-3.137-6.2a1.7,1.7,0,0,0-1.546.428c-1.334,1.323-.782,5.06-.777,5.1l-.131.02c-.024-.157-.566-3.842.816-5.211a1.822,1.822,0,0,1,1.661-.467C475.808,93.877,475.714,99.619,475.712,99.677Z" transform="translate(-394.789 -91.01)" fill="#535461"/>
      <path id="Контур_207" data-name="Контур 207" d="M702.73,140.952l-.12-.057c.02-.044,2.076-4.5-.64-6.049l.066-.116C704.858,136.343,702.752,140.906,702.73,140.952Z" transform="translate(-584.066 -124.788)" fill="#535461"/>
      <path id="Контур_208" data-name="Контур 208" d="M549.889,288.273l-3.467.934s-5.735.8-3.467-1.476a6.107,6.107,0,0,0,1.338-3.55c.906,1.421,2,1.017,2,1.017l3.307-.065h.013A8.88,8.88,0,0,0,549.889,288.273Z" transform="translate(-453.96 -246.661)" opacity="0.1"/>
      <path id="Контур_209" data-name="Контур 209" d="M611.863,285.423a3.505,3.505,0,0,1-.712.411l-.8-6.4.738-1.86.185-.142C612.939,277.9,612.079,284.038,611.863,285.423Z" transform="translate(-509.352 -241.157)" opacity="0.1"/>
      <path id="Контур_210" data-name="Контур 210" d="M504.4,261.54v1.735l-2.934,7.6-.8-.8a1.345,1.345,0,0,1-.122-.151C500.887,265.961,504.4,261.54,504.4,261.54Z" transform="translate(-419.805 -228.199)" opacity="0.1"/>
      <path id="Контур_211" data-name="Контур 211" d="M529.524,431.052c-1.866.467-11.6,2.755-14.494.589a6.585,6.585,0,0,0-3.74-1.218,8.412,8.412,0,0,1,.406-1.183l14.332.666.845.039,2.03.094Q529.235,430.543,529.524,431.052Z" transform="translate(-428.571 -364.955)" opacity="0.1"/>
      <path id="Контур_212" data-name="Контур 212" d="M474.1,90.59s2,3.334,3.334,0" transform="translate(-398.243 -88.793)" fill="#f8bdc5"/>
      <path id="Контур_213" data-name="Контур 213" d="M696.7,127.81s-.8,4,2.4,2.135" transform="translate(-579.693 -119.145)" fill="#f8bdc5"/>
      <g id="Сгруппировать_261" data-name="Сгруппировать 261" transform="translate(83.038 64.291)" opacity="0.1">
        <path id="Контур_214" data-name="Контур 214" d="M544.795,523.809c-.065-.812-.113-1.319-.113-1.319-1.476.4-1.334,19.873-1.334,19.873v12.671a4.638,4.638,0,0,1-2.648,1.231,4.4,4.4,0,0,0,3.321-1.231V542.363S543.918,528.253,544.795,523.809Z" transform="translate(-535.592 -505.289)"/>
        <path id="Контур_215" data-name="Контур 215" d="M531.991,433.413c-.113-.284-.232-.57-.369-.854-.225-.495-.478-.991-.758-1.476-.184-.34-.4-.677-.624-1.013l-2.03-.094-.845-.039-14.332-.666-.013.03,13.679.637.845.039,2.03.094c.221.334.43.674.624,1.013.28.493.533.989.758,1.476.129.284.251.57.369.854a22.554,22.554,0,0,1,.657,13.59l-.786,5.51a39.834,39.834,0,0,1-1.45,6.169,10.036,10.036,0,0,0-.164,4.059s.533,8.536-.4,10.671a13.99,13.99,0,0,0-.8,5.2,3.877,3.877,0,0,1-1.672.461,4.245,4.245,0,0,0,2.338-.461,13.985,13.985,0,0,1,.8-5.2c.934-2.133.4-10.671.4-10.671a10.038,10.038,0,0,1,.164-4.059,39.838,39.838,0,0,0,1.45-6.169l.786-5.51A22.556,22.556,0,0,0,531.991,433.413Z" transform="translate(-513.02 -429.27)"/>
      </g>
      <path id="Контур_216" data-name="Контур 216" d="M505.377,266.984c1.845.869,6.163-2.469,6.163-2.469,1.867.533.533,8.27.533,8.27l-.072.321c-.406,1.825-.651,3.679-.878,5.536a5.5,5.5,0,0,1-1.45,2.681c-2.268,4.268,1.334,12.671,1.334,12.671s-11.6,3.069-14.8.666-8-.533-8-.533c2.268-2,2.4-14.406,2.4-14.406v-9.6c.268-4,3.875-8.536,3.875-8.536A6.7,6.7,0,0,0,500.052,266c.91,1.476,2.03,1.061,2.03,1.061Z" transform="translate(-409.741 -228.24)" fill="#ff00ae"/>
      <path id="Контур_217" data-name="Контур 217" d="M529.608,202.23a3.271,3.271,0,0,0-1.39,0c-1.45.4-1.906,2.229-3.026,3.233-.4.369-.9.616-1.264,1.017a3.323,3.323,0,0,0-.642,2.722c.138.954.507,1.858.738,2.794a9.666,9.666,0,0,1,.256,2.864,1.684,1.684,0,0,1-.247.906c-.268.369-.76.485-1.107.781-1.059.912-.184,2.8-.961,3.967-.334.5-.96.836-1.087,1.426a1.953,1.953,0,0,0,.29,1.227,8.884,8.884,0,0,0,1.845,2.814,8.654,8.654,0,0,0,2.9,1.522c.312.116.7.218.941-.013.293-.288.072-.775-.131-1.131a2.4,2.4,0,0,1-.384-1.845c.188-.624.792-1.037,1.2-1.557,1.046-1.347.7-3.281.185-4.9a3.81,3.81,0,0,1-.28-2.109c.079-.3.236-.57.336-.864.443-1.306-.3-2.74-.083-4.1a5.9,5.9,0,0,1,.554-1.526l1.172-2.519a2.49,2.49,0,0,1,.519-.816,1.845,1.845,0,0,1,1.292-.4,3.506,3.506,0,0,1,2.515,1.146c1.255,1.395,1.175,3.506,1.024,5.366l-.109,1.343a4.915,4.915,0,0,1-.793,2.751c-.474.583-1.24.98-1.436,1.707-.17.626.149,1.3-.019,1.93-.251.936-1.406,1.273-2.017,2.03a2.076,2.076,0,0,0-.151,2.334c.233.369.6.738.554,1.172-.042.349-.356.631-.354.982a.781.781,0,0,0,.566.677,2.288,2.288,0,0,0,.936.044l3.308-.3a1.164,1.164,0,0,0,.589-.162,1.036,1.036,0,0,0,.338-.755c.133-1.177-.184-2.463.4-3.493.184-.33.456-.605.661-.923,1.129-1.771-.009-4.174.605-6.183A26.47,26.47,0,0,0,539,212.628c.24-1.306-.441-2.583-.7-3.875-.271-1.334-.125-2.8-.838-3.964a4.077,4.077,0,0,0-2.526-1.69,19.481,19.481,0,0,0-2.768-.249C531.285,202.749,530.466,202.369,529.608,202.23Z" transform="translate(-436.371 -179.772)" opacity="0.1"/>
      <path id="Контур_218" data-name="Контур 218" d="M529.608,200.78a3.272,3.272,0,0,0-1.39,0c-1.45.4-1.906,2.229-3.026,3.233-.4.369-.9.616-1.264,1.017a3.323,3.323,0,0,0-.642,2.722c.138.954.507,1.858.738,2.794a9.667,9.667,0,0,1,.256,2.864,1.684,1.684,0,0,1-.247.906c-.268.369-.76.485-1.107.781-1.059.912-.184,2.8-.961,3.967-.334.5-.96.836-1.087,1.426a1.953,1.953,0,0,0,.29,1.227,8.884,8.884,0,0,0,1.845,2.814,8.653,8.653,0,0,0,2.9,1.522c.312.116.7.218.941-.013.293-.288.072-.775-.131-1.131a2.4,2.4,0,0,1-.384-1.845c.188-.624.792-1.037,1.2-1.557,1.046-1.347.7-3.281.185-4.9a3.81,3.81,0,0,1-.28-2.109c.079-.3.236-.57.336-.864.443-1.306-.3-2.74-.083-4.1A5.89,5.89,0,0,1,528.25,208l1.172-2.519a2.49,2.49,0,0,1,.519-.816,1.845,1.845,0,0,1,1.292-.4,3.506,3.506,0,0,1,2.515,1.146c1.255,1.395,1.175,3.506,1.024,5.366l-.109,1.343a4.915,4.915,0,0,1-.793,2.751c-.474.583-1.24.98-1.436,1.707-.17.626.149,1.3-.019,1.93-.251.936-1.406,1.273-2.017,2.03a2.076,2.076,0,0,0-.151,2.334c.233.369.6.738.554,1.172-.042.349-.356.631-.354.982a.781.781,0,0,0,.566.677,2.289,2.289,0,0,0,.936.044l3.308-.3a1.164,1.164,0,0,0,.589-.162,1.036,1.036,0,0,0,.338-.755c.133-1.177-.184-2.463.4-3.493.184-.33.456-.605.661-.923,1.129-1.771-.009-4.174.605-6.183A26.471,26.471,0,0,0,539,211.178c.24-1.306-.441-2.583-.7-3.875-.271-1.334-.125-2.8-.838-3.964a4.077,4.077,0,0,0-2.526-1.69,19.486,19.486,0,0,0-2.768-.249C531.285,201.3,530.466,200.92,529.608,200.78Z" transform="translate(-436.371 -178.59)" fill="#774e55"/>
      <path id="Контур_219" data-name="Контур 219" d="M529.75,362.584s2.668.8,6.536-.934h2s.133,1.867,5.335,1.067" transform="translate(-443.625 -309.836)" opacity="0.1"/>
      <ellipse id="Эллипс_26" data-name="Эллипс 26" cx="99.088" cy="9.042" rx="99.088" ry="9.042" transform="translate(0 118.214)" fill="#5780d9" opacity="0.1"/>
      <rect id="Прямоугольник_175" data-name="Прямоугольник 175" width="14.762" height="5.536" rx="2.768" transform="translate(46.499 47.542)" fill="#5780d9" opacity="0.1"/>
      <rect id="Прямоугольник_176" data-name="Прямоугольник 176" width="14.762" height="5.536" rx="2.768" transform="translate(53.142 53.631)" fill="#5780d9" opacity="0.1"/>
      <rect id="Прямоугольник_177" data-name="Прямоугольник 177" width="14.762" height="5.536" rx="2.768" transform="translate(111.266 47.911)" fill="#5780d9" opacity="0.1"/>
      <rect id="Прямоугольник_178" data-name="Прямоугольник 178" width="14.762" height="5.536" rx="2.768" transform="translate(117.909 54)" fill="#5780d9" opacity="0.1"/>
      <rect id="Прямоугольник_179" data-name="Прямоугольник 179" width="14.762" height="5.536" rx="2.768" transform="translate(41.886 59.72)" fill="#5780d9" opacity="0.1"/>
      <rect id="Прямоугольник_180" data-name="Прямоугольник 180" width="14.762" height="5.536" rx="2.768" transform="translate(56.648 81.309)" fill="#6c63ff" opacity="0.1"/>
      <rect id="Прямоугольник_181" data-name="Прямоугольник 181" width="14.762" height="5.536" rx="2.768" transform="translate(63.291 87.399)" fill="#6c63ff" opacity="0.1"/>
      <rect id="Прямоугольник_182" data-name="Прямоугольник 182" width="14.762" height="5.536" rx="2.768" transform="translate(52.035 93.488)" fill="#5780d9" opacity="0.1"/>
      <rect id="Прямоугольник_183" data-name="Прямоугольник 183" width="14.762" height="5.536" rx="2.768" transform="translate(116.064 96.809)" fill="#5780d9" opacity="0.1"/>
      <rect id="Прямоугольник_184" data-name="Прямоугольник 184" width="14.762" height="5.536" rx="2.768" transform="translate(104.808 102.898)" fill="#5780d9" opacity="0.1"/>
      <g id="Сгруппировать_262" data-name="Сгруппировать 262" transform="translate(166.12 71.25)" opacity="0.1">
        <path id="Контур_220" data-name="Контур 220" d="M1005.394,558.189s-2.672-13.536,2.831-22.814a20.906,20.906,0,0,0,2.884-12.905,35.157,35.157,0,0,0-1.292-6.3" transform="translate(-997.093 -507.094)" fill="none" stroke="#bec2ff" stroke-miterlimit="10" stroke-width="2"/>
        <path id="Контур_221" data-name="Контур 221" d="M1024.963,470.192c-.148,1.615-3.506,6.03-3.506,6.03s-2.495-4.953-2.345-6.569a2.937,2.937,0,1,1,5.85.537Z" transform="translate(-1008.803 -466.984)" fill="#5780d9"/>
        <path id="Контур_222" data-name="Контур 222" d="M1045.118,513.828c-1,1.275-6.218,3.159-6.218,3.159s.6-5.513,1.6-6.789a2.938,2.938,0,1,1,4.613,3.63Z" transform="translate(-1024.945 -501.228)" fill="#5780d9"/>
        <path id="Контур_223" data-name="Контур 223" d="M1033.072,592.938c-1.509.594-6.962-.413-6.962-.413s3.3-4.458,4.809-5.052a2.937,2.937,0,1,1,2.154,5.466Z" transform="translate(-1014.515 -565.072)" fill="#5780d9"/>
        <path id="Контур_224" data-name="Контур 224" d="M1012.472,655.067c-1.388.841-6.932.769-6.932.769s2.5-4.951,3.886-5.792a2.937,2.937,0,1,1,3.047,5.023Z" transform="translate(-997.741 -615.918)" fill="#5780d9"/>
        <path id="Контур_225" data-name="Контур 225" d="M1002.336,529.573c1.055,1.233,6.346,2.893,6.346,2.893s-.83-5.484-1.884-6.715a2.937,2.937,0,1,0-4.462,3.822Z" transform="translate(-994.552 -514.07)" fill="#5780d9"/>
        <path id="Контур_226" data-name="Контур 226" d="M976.014,598.827c1.375.86,6.922.862,6.922.862s-2.432-4.982-3.809-5.844a2.937,2.937,0,1,0-3.113,4.982Z" transform="translate(-972.537 -570.072)" fill="#5780d9"/>
        <path id="Контур_227" data-name="Контур 227" d="M964.329,672.755c1.21,1.079,6.676,2.021,6.676,2.021s-1.555-5.323-2.768-6.4a2.938,2.938,0,1,0-3.908,4.382Z" transform="translate(-963.273 -630.55)" fill="#5780d9"/>
      </g>
      <g id="Сгруппировать_263" data-name="Сгруппировать 263" transform="translate(146.833 92.029)" opacity="0.1">
        <path id="Контур_228" data-name="Контур 228" d="M881.092,628.073s-1.434-7.268,1.519-12.25a11.226,11.226,0,0,0,1.548-6.931,18.882,18.882,0,0,0-.69-3.382" transform="translate(-876.685 -600.727)" fill="none" stroke="#535461" stroke-miterlimit="10" stroke-width="2"/>
        <path id="Контур_229" data-name="Контур 229" d="M891.6,581.222c-.079.867-1.882,3.238-1.882,3.238s-1.34-2.659-1.26-3.526a1.578,1.578,0,0,1,3.137.288Z" transform="translate(-882.971 -579.591)" fill="#5780d9"/>
        <path id="Контур_230" data-name="Контур 230" d="M902.41,604.646c-.539.685-3.34,1.7-3.34,1.7s.321-2.952.86-3.644a1.578,1.578,0,0,1,2.48,1.949Z" transform="translate(-891.63 -597.972)" fill="#5780d9"/>
        <path id="Контур_231" data-name="Контур 231" d="M895.948,646.823c-.81.319-3.738-.221-3.738-.221s1.771-2.4,2.583-2.713a1.578,1.578,0,0,1,1.157,2.934Z" transform="translate(-886.036 -631.949)" fill="#5780d9"/>
        <path id="Контур_232" data-name="Контур 232" d="M884.892,679.981c-.738.452-3.722.413-3.722.413s1.341-2.659,2.087-3.111a1.578,1.578,0,1,1,1.635,2.7Z" transform="translate(-877.033 -659.054)" fill="#5780d9"/>
        <path id="Контур_233" data-name="Контур 233" d="M879.437,612.71c.567.662,3.408,1.554,3.408,1.554s-.445-2.952-1.011-3.606a1.578,1.578,0,0,0-2.4,2.052Z" transform="translate(-875.309 -604.476)" fill="#5780d9"/>
        <path id="Контур_234" data-name="Контур 234" d="M865.311,649.893c.738.461,3.716.463,3.716.463s-1.306-2.675-2.044-3.137a1.578,1.578,0,1,0-1.672,2.676Z" transform="translate(-863.495 -634.545)" fill="#5780d9"/>
        <path id="Контур_235" data-name="Контур 235" d="M859.268,689.743c.65.579,3.585,1.085,3.585,1.085s-.834-2.858-1.476-3.438a1.578,1.578,0,1,0-2.1,2.355Z" transform="translate(-858.75 -667.173)" fill="#5780d9"/>
      </g>
      <g id="Сгруппировать_264" data-name="Сгруппировать 264" transform="translate(30.031 93.136)" opacity="0.1">
        <path id="Контур_236" data-name="Контур 236" d="M248.092,634.073s-1.434-7.268,1.519-12.25a11.227,11.227,0,0,0,1.548-6.931,18.879,18.879,0,0,0-.69-3.382" transform="translate(-243.685 -606.727)" fill="none" stroke="#535461" stroke-miterlimit="10" stroke-width="2"/>
        <path id="Контур_237" data-name="Контур 237" d="M258.6,587.223c-.079.867-1.882,3.238-1.882,3.238s-1.34-2.659-1.26-3.526a1.578,1.578,0,0,1,3.137.288Z" transform="translate(-249.971 -585.592)" fill="#5780d9"/>
        <path id="Контур_238" data-name="Контур 238" d="M269.41,610.646c-.539.685-3.34,1.7-3.34,1.7s.321-2.952.86-3.644a1.578,1.578,0,0,1,2.48,1.948Z" transform="translate(-258.63 -603.972)" fill="#5780d9"/>
        <path id="Контур_239" data-name="Контур 239" d="M262.948,652.823c-.81.319-3.738-.221-3.738-.221s1.771-2.4,2.583-2.713a1.578,1.578,0,0,1,1.157,2.934Z" transform="translate(-253.036 -637.949)" fill="#5780d9"/>
        <path id="Контур_240" data-name="Контур 240" d="M251.892,685.98c-.738.452-3.722.413-3.722.413s1.341-2.659,2.087-3.111a1.578,1.578,0,1,1,1.635,2.7Z" transform="translate(-244.033 -665.054)" fill="#5780d9"/>
        <path id="Контур_241" data-name="Контур 241" d="M246.437,618.711c.566.662,3.408,1.554,3.408,1.554s-.445-2.952-1.011-3.606a1.578,1.578,0,0,0-2.4,2.052Z" transform="translate(-242.309 -610.476)" fill="#5780d9"/>
        <path id="Контур_242" data-name="Контур 242" d="M232.311,655.893c.738.461,3.716.463,3.716.463s-1.306-2.676-2.045-3.137a1.578,1.578,0,1,0-1.672,2.676Z" transform="translate(-230.495 -640.545)" fill="#5780d9"/>
        <path id="Контур_243" data-name="Контур 243" d="M226.268,695.743c.65.579,3.585,1.085,3.585,1.085s-.834-2.858-1.476-3.438a1.578,1.578,0,1,0-2.1,2.355Z" transform="translate(-225.75 -673.173)" fill="#5780d9"/>
      </g>
    </g>
  </g>
</svg>
